<?xml version="1.0" standalone="no"?>
<!DOCTYPE svg PUBLIC "-//W3C//DTD SVG 20010904//EN"
 "http://www.w3.org/TR/2001/REC-SVG-20010904/DTD/svg10.dtd">
<svg version="1.0" xmlns="http://www.w3.org/2000/svg"
 width="2972.000000pt" height="1440.000000pt" viewBox="0 0 2972.000000 1440.000000"
 preserveAspectRatio="xMidYMid meet">

<g transform="translate(0.000000,1440.000000) scale(0.100000,-0.100000)"
fill="#000000" stroke="none">
<path d="M14785 10693 c-122 -11 -311 -65 -420 -121 -261 -132 -484 -390 -568
-657 -40 -127 -42 -171 -3 -58 102 296 270 505 524 655 180 106 350 152 567
152 292 0 545 -95 763 -286 165 -145 272 -318 344 -558 22 -74 27 -84 22 -46
-13 107 -90 297 -168 415 -225 338 -652 541 -1061 504z"/>
<path d="M14690 10635 c-212 -39 -414 -142 -574 -295 -282 -268 -389 -608
-331 -1050 38 -292 46 -412 41 -690 -5 -265 -5 -272 9 -190 8 47 18 189 21
317 l7 231 37 -47 c21 -26 41 -58 45 -72 4 -13 13 -31 20 -39 7 -8 15 -26 18
-40 4 -14 23 -36 43 -50 21 -14 50 -37 65 -52 15 -16 32 -28 38 -28 6 0 11 -5
11 -11 0 -6 9 -9 20 -6 24 6 26 11 -72 -152 -123 -203 -93 -168 48 56 l97 154
-44 47 -44 46 43 -37 c23 -20 45 -37 48 -37 10 0 -14 28 -106 125 -47 50 -101
112 -119 138 -48 71 -106 192 -131 275 -29 94 -36 88 -11 -9 11 -40 18 -75 16
-77 -4 -5 -40 115 -54 183 -64 316 44 680 275 924 92 98 179 162 309 226 152
76 261 106 408 112 604 28 1090 -399 1136 -999 19 -248 -48 -489 -194 -694
-42 -59 -198 -214 -215 -214 -5 0 -11 9 -15 19 -3 11 -13 25 -22 33 -19 14 4
-26 67 -122 20 -30 60 -94 90 -142 29 -49 55 -88 57 -88 3 0 -5 17 -17 38
-109 184 -114 194 -98 203 36 20 105 83 128 118 28 40 74 98 136 171 l41 48 6
-237 c7 -285 44 -621 84 -756 5 -18 4 -19 -12 -5 -17 14 -17 14 -4 -7 l14 -23
12 23 12 22 1 -25 c1 -14 4 -20 6 -13 3 7 -8 63 -25 125 -47 178 -53 248 -54
573 -1 256 2 328 22 495 43 360 39 530 -16 719 -66 229 -212 439 -403 581
-235 174 -585 256 -870 205z m-676 -1721 c16 -22 45 -56 64 -76 20 -21 33 -40
30 -43 -11 -12 -139 161 -178 240 -56 113 -50 120 8 9 26 -50 61 -109 76 -130z
m115 -181 c91 -88 102 -111 20 -41 -46 39 -145 153 -164 188 -4 8 7 -3 25 -25
18 -22 72 -77 119 -122z m1639 110 c-38 -55 -188 -206 -196 -198 -3 3 33 43
79 88 47 46 98 100 113 120 41 53 43 46 4 -10z"/>
<path d="M14612 10135 c-40 -19 -72 -37 -72 -40 0 -3 23 7 52 21 29 15 68 32
88 40 19 7 28 13 20 13 -9 1 -48 -15 -88 -34z"/>
<path d="M14755 10155 c-187 -40 -369 -186 -451 -360 -49 -103 -65 -176 -65
-291 0 -163 53 -298 161 -417 28 -31 49 -61 45 -67 -3 -5 -4 -10 -2 -10 3 0
14 15 25 33 11 19 27 46 37 61 16 23 16 26 1 20 -9 -3 -16 -2 -16 4 0 6 5 12
12 14 7 3 0 19 -20 44 -18 22 -48 69 -67 104 -35 65 -46 65 -22 0 19 -52 37
-83 61 -103 11 -10 15 -16 7 -12 -9 5 -8 -1 4 -19 14 -21 15 -29 5 -41 -7 -8
-10 -22 -6 -30 3 -8 3 -21 0 -29 -8 -20 -96 79 -128 143 -57 112 -68 152 -73
271 -3 73 -1 110 5 101 11 -16 17 -7 27 39 10 48 57 150 106 229 l40 66 -39
-42 c-45 -49 -88 -130 -114 -218 -13 -43 -17 -50 -14 -23 6 46 45 143 87 216
74 125 225 242 329 255 45 5 45 5 17 -10 -41 -21 -29 -25 28 -7 125 37 281 26
403 -31 59 -27 62 -16 4 15 -52 29 -4 16 73 -19 75 -35 123 -76 180 -155 110
-155 153 -360 110 -528 -23 -88 -76 -195 -126 -251 -23 -26 -39 -50 -36 -53 7
-7 85 84 115 135 50 86 74 169 79 283 7 131 -10 214 -70 338 -81 168 -259 306
-443 345 -84 18 -188 18 -269 0z m165 -35 c0 -5 -5 -10 -11 -10 -5 0 -7 5 -4
10 3 6 8 10 11 10 2 0 4 -4 4 -10z m57 -6 c-3 -3 -12 -4 -19 -1 -8 3 -5 6 6 6
11 1 17 -2 13 -5z m-487 -1013 c0 -6 -4 -13 -10 -16 -5 -3 -10 1 -10 9 0 9 5
16 10 16 6 0 10 -4 10 -9z"/>
<path d="M15220 10107 c0 -2 19 -17 43 -32 23 -16 37 -22 30 -14 -12 15 -73
53 -73 46z"/>
<path d="M14479 10053 c-13 -16 -12 -17 4 -4 9 7 17 15 17 17 0 8 -8 3 -21
-13z"/>
<path d="M15355 10000 c21 -22 41 -40 44 -40 3 0 -13 18 -34 40 -21 22 -41 40
-44 40 -3 0 13 -18 34 -40z"/>
<path d="M14414 9998 l-29 -33 33 29 c30 28 37 36 29 36 -2 0 -16 -15 -33 -32z"/>
<path d="M14359 9933 c-13 -16 -12 -17 4 -4 9 7 17 15 17 17 0 8 -8 3 -21 -13z"/>
<path d="M15481 9650 c0 -8 4 -24 9 -35 5 -13 9 -14 9 -5 0 8 -4 24 -9 35 -5
13 -9 14 -9 5z"/>
<path d="M14381 9462 c-1 -52 37 -151 87 -227 26 -38 50 -76 53 -85 6 -13 8
-13 14 3 5 12 -5 33 -33 70 -52 70 -82 128 -103 207 -14 51 -18 58 -18 32z"/>
<path d="M15375 9418 c-20 -62 -77 -171 -111 -211 -13 -16 -24 -38 -24 -49 0
-22 0 -21 86 104 32 46 57 111 68 176 8 48 0 39 -19 -20z"/>
<path d="M13632 9405 c0 -16 2 -22 5 -12 2 9 2 23 0 30 -3 6 -5 -1 -5 -18z"/>
<path d="M15376 9326 c-10 -27 -39 -78 -63 -113 -55 -81 -50 -95 7 -18 48 65
83 138 78 163 -2 10 -11 -3 -22 -32z"/>
<path d="M13643 9315 c0 -22 2 -30 4 -17 2 12 2 30 0 40 -3 9 -5 -1 -4 -23z"/>
<path d="M13653 9230 c0 -25 2 -35 4 -22 2 12 2 32 0 45 -2 12 -4 2 -4 -23z"/>
<path d="M15856 9115 c-56 -124 -129 -230 -224 -323 -46 -46 -81 -86 -78 -89
11 -11 163 146 215 222 53 76 101 168 121 228 21 67 5 49 -34 -38z"/>
<path d="M13663 9145 c0 -22 2 -30 4 -17 2 12 2 30 0 40 -3 9 -5 -1 -4 -23z"/>
<path d="M16111 9154 c0 -11 3 -14 6 -6 3 7 2 16 -1 19 -3 4 -6 -2 -5 -13z"/>
<path d="M15270 9121 c0 -6 4 -13 10 -16 6 -3 7 1 4 9 -7 18 -14 21 -14 7z"/>
<path d="M14613 9029 c-52 -83 -147 -233 -413 -649 -326 -510 -390 -613 -385
-619 10 -9 92 112 268 394 156 251 526 827 540 840 14 14 -20 -43 -153 -255
-227 -360 -299 -480 -286 -480 3 0 21 28 42 63 42 70 74 114 74 102 0 -5 10 1
23 12 39 36 59 36 147 -2 150 -64 226 -79 400 -79 173 -1 249 12 426 70 l106
35 33 -22 c18 -13 51 -52 73 -88 23 -36 55 -82 71 -101 l31 -35 -19 46 c-10
25 -88 155 -173 290 -119 189 -293 468 -303 486 -1 2 -26 -6 -57 -17 -111 -39
-253 -35 -355 10 -41 18 -42 18 -58 -3 -16 -21 -16 -21 -2 3 17 29 21 29 102
-1 81 -29 245 -24 318 9 l48 21 57 -89 c31 -50 117 -183 191 -298 74 -114 182
-283 241 -377 248 -392 296 -466 328 -502 53 -60 30 -12 -67 136 -49 75 -155
242 -237 371 -537 846 -489 775 -526 774 -18 -1 -67 -9 -108 -18 -88 -21 -174
-16 -253 14 -29 11 -60 20 -69 20 -11 0 -33 -24 -55 -61z m180 -159 c92 -15
178 -9 290 21 44 12 82 18 84 13 2 -5 46 -76 98 -159 l95 -150 -50 -23 c-139
-65 -377 -96 -552 -73 -102 14 -338 86 -338 103 0 11 146 248 180 291 l20 25
47 -18 c27 -10 83 -23 126 -30z m55 23 c-10 -2 -28 -2 -40 0 -13 2 -5 4 17 4
22 1 32 -1 23 -4z m110 0 c-10 -2 -28 -2 -40 0 -13 2 -5 4 17 4 22 1 32 -1 23
-4z m-333 -425 c70 -20 102 -23 255 -23 194 1 272 14 424 75 43 17 80 29 82
27 3 -2 -27 -18 -66 -36 -247 -110 -513 -125 -752 -42 -78 27 -188 80 -188 91
0 5 37 -9 83 -30 45 -21 118 -49 162 -62z m-110 7 c91 -40 102 -43 216 -60
176 -26 363 -5 534 60 98 37 105 39 105 26 0 -10 -14 -15 -32 -12 -5 0 -8 -4
-8 -11 0 -6 -3 -8 -7 -5 -3 4 -16 -1 -27 -12 -28 -26 -159 -67 -258 -82 -94
-14 -240 -7 -343 16 -105 23 -197 55 -210 72 -7 9 -16 13 -22 10 -5 -3 -17 3
-27 14 -17 20 -17 21 6 13 13 -4 46 -17 73 -29z"/>
<path d="M15305 9060 c9 -16 18 -30 21 -30 2 0 -2 14 -11 30 -9 17 -18 30 -21
30 -2 0 2 -13 11 -30z"/>
<path d="M15760 8320 c6 -11 13 -20 16 -20 2 0 0 9 -6 20 -6 11 -13 20 -16 20
-2 0 0 -9 6 -20z"/>
<path d="M13994 8308 c-4 -7 -14 -24 -22 -38 -14 -24 -13 -24 3 -5 20 24 37
55 31 55 -3 0 -8 -6 -12 -12z"/>
<path d="M13810 8286 c0 -20 -25 -175 -46 -286 -4 -19 -4 -32 0 -29 18 17 68
339 52 339 -3 0 -6 -11 -6 -24z"/>
<path d="M13860 8095 c-54 -87 -96 -143 -102 -139 -7 4 -8 2 -4 -5 9 -14 -12
-43 -25 -35 -5 3 -9 -1 -9 -10 0 -8 -3 -23 -6 -33 -13 -36 21 10 112 152 111
173 137 215 131 215 -3 0 -46 -65 -97 -145z"/>
<path d="M13741 8144 c0 -11 3 -14 6 -6 3 7 2 16 -1 19 -3 4 -6 -2 -5 -13z"/>
<path d="M16031 8121 c-1 -28 52 -237 56 -224 2 5 -10 63 -26 129 -16 65 -30
108 -30 95z"/>
<path d="M14655 8115 c-230 -37 -421 -105 -600 -212 -60 -36 -114 -68 -119
-71 -9 -5 50 105 66 123 4 5 8 16 8 25 0 8 -19 -14 -42 -50 -23 -36 -56 -89
-75 -118 -25 -40 -29 -51 -15 -43 10 5 25 17 32 26 7 8 52 40 100 69 280 174
535 249 845 250 88 1 194 -2 235 -6 57 -5 66 -4 35 3 -73 17 -371 20 -470 4z"/>
<path d="M15889 8115 c5 -11 17 -29 26 -40 l16 -20 -10 20 c-5 11 -17 29 -26
40 l-16 20 10 -20z"/>
<path d="M13731 8094 c0 -11 3 -14 6 -6 3 7 2 16 -1 19 -3 4 -6 -2 -5 -13z"/>
<path d="M15279 8071 c63 -17 116 -29 118 -27 5 5 -151 47 -196 52 -20 3 15
-9 78 -25z"/>
<path d="M13721 8054 c0 -11 3 -14 6 -6 3 7 2 16 -1 19 -3 4 -6 -2 -5 -13z"/>
<path d="M15742 8010 c14 -25 29 -56 33 -69 4 -12 18 -39 31 -59 13 -19 22
-37 20 -40 -3 -2 -34 14 -68 36 -110 69 -332 172 -344 159 -2 -2 33 -18 79
-35 100 -38 283 -141 363 -205 32 -25 60 -45 62 -43 3 4 -174 275 -191 291 -6
6 1 -10 15 -35z"/>
<path d="M15939 8035 c5 -11 17 -29 26 -40 l16 -20 -10 20 c-5 11 -17 29 -26
40 l-16 20 10 -20z"/>
<path d="M13711 8014 c0 -11 3 -14 6 -6 3 7 2 16 -1 19 -3 4 -6 -2 -5 -13z"/>
<path d="M13741 7994 c0 -11 3 -14 6 -6 3 7 2 16 -1 19 -3 4 -6 -2 -5 -13z"/>
<path d="M14679 7995 c-109 -18 -233 -49 -316 -81 -252 -94 -532 -308 -663
-506 -63 -96 -136 -253 -164 -353 -26 -95 -44 -207 -27 -170 8 17 10 15 11
-15 1 -25 6 -13 16 41 43 242 149 451 315 624 236 245 548 397 899 436 248 28
544 -27 777 -145 392 -196 634 -504 709 -901 21 -110 23 -119 30 -113 3 3 0
51 -5 106 -18 176 -103 384 -221 541 -112 148 -302 300 -495 395 -125 61 -193
85 -350 121 -139 33 -383 42 -516 20z"/>
<path d="M14720 7943 c-178 -28 -332 -74 -455 -135 -73 -37 -195 -115 -195
-125 0 -2 5 -1 10 2 23 14 7 -8 -30 -42 -23 -20 -50 -49 -61 -65 -17 -23 -6
-18 58 28 108 78 117 81 209 81 45 0 88 4 95 9 8 5 16 9 19 9 3 1 25 5 50 10
25 5 51 8 58 6 6 -1 12 3 12 9 0 5 5 10 11 10 5 0 7 -4 4 -10 -3 -6 1 -7 9 -4
9 3 13 11 9 18 -4 6 1 5 10 -3 11 -8 17 -9 17 -3 0 7 7 9 17 5 10 -4 14 -2 10
4 -4 7 0 10 10 8 10 -1 30 4 45 11 18 9 29 11 33 3 5 -7 11 -7 20 1 7 6 21 7
30 3 12 -4 16 -3 12 4 -4 6 5 13 23 15 17 3 30 1 30 -4 0 -5 9 -4 19 2 13 7
22 7 26 0 3 -5 11 -10 16 -10 6 0 7 5 3 12 -5 8 -2 9 9 5 9 -3 19 -1 23 5 4 7
9 6 14 -2 9 -14 127 -23 135 -10 4 6 20 4 41 -5 19 -8 32 -10 29 -5 -3 6 -2
10 4 10 5 0 11 -6 13 -12 3 -8 23 -13 49 -14 66 -2 121 -15 141 -34 10 -9 38
-23 61 -30 23 -6 62 -19 87 -28 27 -10 78 -16 126 -17 78 0 84 -2 140 -40 72
-50 180 -157 259 -257 33 -42 62 -75 64 -72 2 2 -12 30 -32 61 -25 41 -32 60
-24 65 9 6 9 8 -1 8 -22 0 -215 198 -206 212 4 7 4 10 0 7 -3 -3 -22 9 -42 28
-46 43 -203 136 -296 174 -88 36 -213 72 -327 93 -77 15 -321 20 -391 9z"/>
<path d="M16032 7911 c-10 -6 -8 -13 7 -32 19 -22 20 -23 21 -4 0 28 -13 45
-28 36z"/>
<path d="M16091 7864 c0 -11 3 -14 6 -6 3 7 2 16 -1 19 -3 4 -6 -2 -5 -13z"/>
<path d="M13230 7173 c-19 -15 -87 -70 -150 -123 -161 -134 -181 -149 -305
-225 -247 -153 -471 -244 -795 -325 -272 -68 -471 -178 -634 -351 -121 -128
-223 -312 -271 -489 -28 -106 -47 -302 -36 -390 6 -48 8 -38 14 75 16 268 83
474 216 661 102 146 218 252 366 337 106 61 183 89 380 137 229 56 342 97 550
200 242 119 421 239 610 409 32 29 39 33 20 12 -38 -41 -202 -178 -285 -236
-35 -25 -114 -75 -176 -112 -108 -64 -144 -93 -72 -58 31 15 32 15 13 -1 -23
-19 -176 -92 -208 -99 -12 -2 -81 -25 -153 -50 -73 -25 -196 -59 -275 -76
-165 -36 -252 -65 -364 -122 -331 -171 -554 -506 -596 -893 -28 -261 49 -558
200 -777 60 -87 201 -227 286 -284 129 -86 290 -153 435 -179 100 -18 297 -17
403 1 230 40 353 107 662 360 133 108 248 187 400 274 311 177 516 267 765
336 74 21 140 40 147 44 6 3 -228 4 -520 3 -361 -3 -534 -7 -539 -14 -3 -6 -9
-36 -13 -67 -18 -147 -98 -336 -196 -465 -127 -168 -315 -305 -516 -376 -301
-106 -597 -91 -868 45 -209 104 -378 271 -476 470 -73 148 -100 253 -106 411
-16 369 95 659 339 890 182 173 383 263 657 294 159 19 345 -7 511 -72 98 -38
97 -35 42 -119 -26 -41 -79 -123 -116 -184 -38 -60 -70 -112 -72 -114 -1 -1
-31 6 -66 18 -194 64 -392 43 -565 -60 -208 -124 -334 -389 -303 -636 6 -42 8
-78 6 -80 -2 -3 -11 24 -19 59 -8 35 -16 52 -16 39 -2 -41 29 -144 69 -226 87
-184 249 -321 441 -372 79 -21 242 -23 319 -4 78 19 206 82 265 131 111 93
209 244 237 368 14 60 33 71 25 15 -3 -21 -3 -30 0 -20 3 13 8 15 17 8 10 -9
10 -23 0 -73 -8 -35 -11 -70 -8 -79 2 -9 -3 -43 -11 -75 -9 -33 -18 -68 -20
-79 -2 -11 -10 -38 -18 -60 -9 -22 -11 -41 -6 -43 5 -2 7 -8 3 -13 -3 -5 0 -9
7 -9 7 0 21 -8 32 -17 15 -13 18 -14 12 -3 -8 13 -6 13 8 1 12 -10 24 -11 46
-3 16 6 32 7 36 4 4 -4 5 -2 3 3 -2 6 0 11 5 12 47 15 93 60 130 128 9 17 16
25 17 20 0 -20 -88 -160 -143 -226 -30 -36 -74 -80 -98 -99 -24 -19 -37 -25
-28 -15 16 20 36 66 23 52 -4 -4 -14 -1 -22 6 -13 10 -15 9 -9 -6 4 -11 3 -16
-3 -12 -6 3 -10 13 -10 22 0 13 -2 14 -17 2 -9 -8 -14 -9 -10 -3 4 7 -1 14
-11 16 -21 5 -63 -4 -63 -14 2 -20 0 -22 -8 -10 -6 10 -10 7 -15 -13 -5 -19
-11 -25 -23 -21 -13 5 -14 4 -4 -8 10 -12 9 -14 -6 -10 -12 3 -22 -3 -29 -20
-15 -32 -6 -79 13 -72 7 3 16 -1 19 -9 5 -11 11 -12 27 -4 22 10 22 10 2 -6
-18 -14 -21 -14 -33 2 -11 16 -12 15 -10 -7 3 -21 -6 -28 -73 -57 -152 -66
-214 -77 -414 -77 -154 0 -192 3 -260 22 -234 65 -478 243 -608 442 -57 89
-91 160 -138 295 -33 95 -38 73 -8 -34 42 -149 130 -300 248 -424 130 -136
265 -222 441 -281 196 -65 388 -71 592 -20 391 99 643 354 763 774 14 47 26
101 28 120 3 27 9 36 26 38 11 2 21 8 21 13 0 10 1080 13 1118 3 45 -13 22
-33 -65 -59 -200 -59 -493 -166 -410 -150 15 3 36 1 47 -5 17 -9 20 -7 21 12
1 17 3 18 6 6 2 -10 8 -18 13 -18 5 0 7 7 3 16 -3 9 0 20 8 25 20 12 82 11 74
-1 -8 -13 -2 -13 70 5 105 25 93 16 -35 -29 -275 -95 -448 -177 -710 -336
-148 -90 -237 -155 -397 -288 -146 -122 -239 -184 -346 -231 -560 -245 -1201
-57 -1546 452 -51 74 -127 242 -156 342 -32 109 -54 267 -56 395 -2 123 -16
74 -18 -61 -4 -357 171 -729 455 -968 151 -126 336 -219 533 -269 92 -23 127
-26 266 -26 173 -1 261 12 410 61 185 61 294 127 510 308 376 317 873 565
1330 665 604 131 1198 1 1880 -410 149 -90 187 -117 350 -250 186 -153 243
-192 347 -243 203 -99 350 -132 583 -131 148 1 183 5 265 26 396 105 693 345
860 693 81 167 118 319 125 510 4 119 4 117 -25 -113 -34 -264 -168 -535 -359
-723 -184 -181 -391 -292 -644 -346 -121 -26 -340 -23 -476 6 -144 31 -350
112 -416 165 -19 16 -19 16 10 10 17 -4 32 -10 35 -13 3 -3 21 -6 40 -7 19 0
44 -4 55 -8 11 -4 -7 7 -40 26 -90 50 -138 85 -280 208 -190 163 -442 324
-740 472 -168 84 -273 125 -497 194 -101 31 -187 58 -191 61 -4 3 -3 11 4 19
10 12 101 14 578 13 383 -1 547 -4 506 -11 -33 -5 -277 -7 -542 -6 -265 2
-476 0 -470 -3 7 -4 59 -19 116 -34 211 -55 382 -122 616 -244 273 -142 451
-259 650 -426 147 -124 193 -156 304 -210 181 -90 327 -120 543 -112 219 7
394 62 580 182 158 102 335 316 409 494 59 141 81 250 86 423 6 181 -3 247
-53 398 -82 245 -243 455 -455 593 -144 94 -225 125 -509 191 -58 13 -157 43
-220 66 -63 22 -119 42 -125 43 -5 1 -13 6 -16 10 -3 5 -21 11 -40 14 -34 5
-89 29 -89 39 0 3 6 2 13 -2 8 -5 9 -4 2 3 -5 6 -66 43 -135 83 -210 123 -382
249 -520 380 -46 44 -48 46 -10 16 25 -20 92 -75 150 -122 247 -201 498 -344
770 -442 120 -43 164 -56 345 -102 259 -65 424 -157 586 -327 201 -211 323
-501 331 -790 1 -44 2 -50 6 -23 l5 35 8 -30 c5 -18 7 12 4 75 -6 147 -55 321
-135 480 -125 250 -340 443 -612 551 -29 11 -138 43 -242 70 -408 107 -711
259 -1041 524 -93 75 -185 144 -202 153 -72 35 -60 6 130 -293 93 -146 366
-569 384 -594 2 -2 5 -2 8 1 4 3 -14 34 -38 69 -87 126 -347 539 -347 552 0
20 62 -11 150 -75 163 -118 359 -219 627 -323 50 -19 70 -32 66 -41 -3 -8 -17
-14 -32 -14 -81 -1 -317 -72 -304 -92 4 -8 0 -9 -11 -5 -11 5 -15 3 -10 -4 4
-7 1 -10 -7 -7 -7 2 -18 1 -24 -4 -5 -5 -19 -15 -30 -23 -11 -8 9 -3 45 11
229 92 459 104 717 39 402 -102 718 -452 788 -874 25 -148 17 -351 -20 -480
-108 -382 -386 -654 -782 -763 -67 -19 -104 -22 -263 -22 -202 0 -249 9 -415
73 -302 116 -558 397 -649 711 -29 104 -43 200 -28 200 6 0 14 -17 17 -37 12
-76 46 -196 76 -270 68 -161 243 -376 388 -473 93 -62 232 -125 346 -156 90
-25 116 -28 265 -28 147 0 176 3 263 27 111 30 255 95 348 157 239 161 429
473 444 730 l4 75 -10 -63 c-27 -172 -124 -391 -234 -529 -133 -167 -356 -306
-565 -354 -237 -54 -547 -9 -748 108 l-44 26 46 26 c25 14 44 31 42 38 -3 8 1
10 12 6 15 -6 15 -5 3 11 -13 15 -13 19 0 27 11 7 11 9 0 9 -11 0 -11 3 -1 15
7 8 10 22 6 30 -3 8 0 15 7 15 7 1 5 6 -5 14 -10 7 -15 16 -12 19 4 3 3 14 -1
24 -5 10 -9 20 -10 23 -8 32 -20 56 -37 73 -11 12 -30 33 -42 47 -13 14 -35
50 -50 80 l-28 55 27 -25 c24 -23 23 -20 -9 34 -59 99 -107 256 -77 256 6 0
11 -9 11 -20 0 -32 40 -143 61 -170 19 -24 19 -24 -1 15 -11 22 -20 50 -20 64
0 21 2 22 18 10 9 -7 14 -9 9 -4 -4 4 5 17 20 27 16 10 22 18 16 18 -7 0 -13
5 -13 11 0 5 5 7 11 3 8 -5 10 3 7 25 -7 46 14 33 29 -19 53 -182 210 -341
392 -394 56 -16 204 -20 251 -7 14 4 -20 6 -76 3 -113 -5 -176 8 -278 60 -132
67 -252 224 -279 366 -11 53 8 36 27 -25 76 -242 260 -384 496 -384 99 0 169
18 256 67 137 76 249 237 259 374 l5 65 -20 -79 c-41 -158 -133 -279 -265
-348 -121 -63 -244 -71 -380 -26 -123 40 -237 143 -294 263 -28 59 -45 132
-22 96 6 -9 11 4 16 40 4 30 15 71 26 93 14 27 17 42 9 50 -5 7 -7 15 -4 19 9
9 12 57 4 62 -4 2 -5 16 -2 30 2 14 0 25 -6 25 -19 0 -49 -48 -61 -97 -7 -26
-16 -54 -20 -62 -6 -12 -131 -14 -852 -12 -464 1 -848 6 -853 11 -15 15 3 28
77 55 338 127 626 375 768 660 53 109 62 140 30 111 -33 -30 -34 -1 -3 96 29
92 48 178 39 178 -3 0 -17 -39 -32 -87 -69 -221 -166 -378 -344 -553 -101
-100 -148 -138 -231 -187 -137 -82 -267 -135 -437 -180 -127 -33 -152 -36
-313 -40 -152 -4 -189 -2 -280 17 -344 70 -646 233 -835 450 -73 85 -79 89
-56 43 11 -23 34 -51 50 -62 35 -25 92 -95 95 -116 1 -9 27 -41 57 -72 l54
-56 -45 31 c-179 129 -377 378 -458 580 -31 77 -44 99 -36 60 4 -17 3 -19 -4
-8 -5 8 -22 69 -37 135 -42 181 -46 510 -9 638 4 14 1 18 -11 15 -15 -3 -173
-241 -403 -608 -46 -74 -144 -229 -217 -345 -178 -283 -248 -402 -243 -415 2
-6 41 47 86 117 46 70 113 173 148 228 36 55 70 99 75 97 6 -1 8 2 5 7 -4 6
12 40 35 78 65 107 290 443 302 450 12 7 7 -2 -43 -77 -41 -61 -110 -178 -110
-186 0 -3 5 -2 11 2 6 3 4 -8 -5 -24 -28 -55 -17 -46 53 45 77 99 120 136 142
122 8 -5 22 -6 33 -3 11 4 16 2 12 -4 -4 -6 5 -12 19 -14 14 -2 26 -7 27 -13
0 -5 7 -14 13 -20 7 -5 16 -23 20 -40 3 -16 12 -37 19 -45 12 -14 76 -168 91
-220 15 -50 104 -217 154 -287 104 -147 308 -331 509 -458 l64 -40 -104 -8
c-56 -4 -254 -6 -438 -5 l-335 3 -7 74 c-23 226 -118 426 -288 606 -41 44 -82
89 -90 100 -14 19 -14 19 6 3 29 -25 53 -24 31 0 -10 10 -17 26 -17 34 0 23
-48 20 -56 -4 -4 -14 20 -45 103 -132 122 -127 188 -228 240 -366 32 -87 69
-279 59 -306 -3 -8 -27 -14 -58 -17 -29 -2 199 -4 507 -5 l560 -1 -94 45
c-180 85 -385 241 -484 369 -17 22 11 -2 63 -53 125 -122 238 -201 390 -274
207 -98 215 -103 215 -113 0 -19 -64 -23 -449 -24 -214 0 -387 -3 -385 -5 3
-3 39 -6 81 -7 43 -1 75 -6 72 -10 -3 -5 -15 -10 -27 -10 -12 -1 -4 -5 18 -10
57 -11 265 0 281 16 12 11 64 10 64 -2 0 -3 -11 -3 -25 -1 -26 5 -35 -6 -12
-15 7 -3 62 -6 123 -7 60 -1 127 -5 149 -10 23 -5 -219 -7 -560 -6 -330 0
-697 0 -815 -2 l-215 -3 -13 -52 c-32 -138 -138 -279 -252 -337 -157 -79 -350
-80 -491 -3 -119 64 -221 213 -253 368 l-14 70 -1 -53 c-3 -152 126 -339 290
-419 81 -40 135 -52 229 -53 229 0 428 147 500 369 26 82 45 96 24 19 -73
-280 -354 -455 -636 -397 -141 29 -299 147 -365 274 -118 226 -92 448 77 644
34 38 61 73 60 76 -1 15 36 57 69 76 20 12 41 27 46 33 61 67 294 86 447 37
l67 -22 -20 -37 c-42 -75 14 6 124 181 62 99 164 259 228 357 64 97 147 226
185 286 37 60 107 170 155 244 85 133 139 229 139 250 0 18 -34 10 -70 -17z
m3366 -125 l29 -33 -32 29 c-31 28 -38 36 -30 36 2 0 16 -15 33 -32z m-3396
19 c0 -2 -17 -19 -37 -38 l-38 -34 34 38 c33 34 41 42 41 34z m3655 -220 c23
-23 -144 96 -185 133 -25 22 5 4 65 -41 61 -45 115 -86 120 -92z m-3735 150
c0 -2 -12 -14 -27 -28 l-28 -24 24 28 c23 25 31 32 31 24z m250 -16 c-5 -11
-15 -23 -21 -27 -6 -3 -3 5 6 20 20 30 30 35 15 7z m-314 -39 c-2 -4 -26 -23
-53 -41 -55 -39 -47 -27 12 18 42 32 49 36 41 23z m19 -66 c14 -14 -33 -98
-241 -422 l-84 -131 -83 33 c-45 19 -89 34 -97 34 -12 0 -12 2 -2 9 8 5 -12
15 -60 29 -66 19 -110 28 -233 48 l-40 6 75 28 c226 83 473 205 625 309 55 38
106 69 113 70 7 0 20 -5 27 -13z m-618 -452 c-3 -3 -12 -4 -19 -1 -8 3 -5 6 6
6 11 1 17 -2 13 -5z m-725 -771 c-6 -2 -10 -9 -6 -14 3 -5 0 -9 -5 -9 -6 0
-10 -4 -8 -8 3 -11 -45 -112 -54 -112 -3 0 -9 9 -12 20 -3 11 -1 17 4 14 11
-6 29 37 21 50 -3 5 0 6 6 2 7 -4 12 -2 12 4 0 17 31 60 44 59 7 0 6 -2 -2 -6z
m-80 -175 c-5 -7 -12 -24 -15 -38 -3 -19 -5 -16 -6 12 0 21 4 38 12 41 17 6
22 0 9 -15z m-15 -155 c-2 -16 -4 -3 -4 27 0 30 2 43 4 28 2 -16 2 -40 0 -55z
m-20 35 c-3 -8 -6 -5 -6 6 -1 11 2 17 5 13 3 -3 4 -12 1 -19z m2357 -26 c2 -4
-12 -8 -32 -9 -36 -1 -36 -1 -7 7 17 4 31 8 32 9 1 0 4 -3 7 -7z m2998 -49
c-51 -2 -132 -2 -180 0 -48 1 -6 3 93 3 99 0 138 -2 87 -3z m-393 -311 c28
-70 67 -147 103 -202 27 -42 28 -43 3 -15 -65 74 -177 363 -174 449 0 11 11
-24 24 -79 13 -55 32 -124 44 -153z m-2774 222 c17 -3 38 -5 48 -5 13 0 17 -5
12 -16 -5 -14 -2 -14 15 2 23 20 25 20 35 -14 5 -18 4 -22 -6 -16 -9 6 -11 2
-7 -13 7 -25 -2 -28 -21 -9 -10 10 -11 9 -6 -4 4 -10 -3 -19 -20 -27 -16 -7
-23 -17 -19 -24 5 -8 2 -9 -10 -5 -10 4 -15 3 -11 -3 3 -5 -33 -28 -80 -50
-165 -76 -373 -194 -495 -281 -91 -64 -91 -64 -86 -37 2 13 9 22 16 20 6 -1 9
2 6 6 -3 5 15 49 39 98 25 49 55 119 67 156 17 52 25 65 35 57 9 -8 17 0 34
38 49 111 62 132 83 136 27 6 332 -2 371 -9z m2438 -7 c20 -9 37 -19 37 -22 0
-3 -6 -3 -12 1 -9 5 -10 4 -3 -4 6 -6 35 -17 65 -24 54 -13 55 -14 88 -81 29
-62 52 -85 52 -54 0 6 15 -22 33 -63 18 -41 47 -102 65 -135 19 -35 24 -50 12
-36 -26 30 -25 21 1 -30 11 -23 19 -42 17 -44 -2 -1 -48 27 -103 63 -120 78
-242 146 -475 264 -96 49 -164 86 -150 83 15 -4 6 5 -22 21 -46 26 -53 42 -32
75 11 19 380 7 427 -14z m-2293 -23 c0 -2 -7 -4 -15 -4 -8 0 -15 4 -15 10 0 5
7 7 15 4 8 -4 15 -8 15 -10z m5 -32 c-3 -3 -11 0 -18 7 -9 10 -8 11 6 5 10 -3
15 -9 12 -12z m-1219 -7 c-5 -14 16 -21 47 -16 4 0 7 -6 7 -14 0 -18 -36 -39
-45 -25 -3 5 -11 10 -17 10 -6 0 -9 -3 -6 -6 3 -3 -5 -16 -18 -29 -14 -14 -21
-30 -18 -39 3 -9 1 -16 -5 -16 -6 0 -11 -4 -11 -10 0 -5 7 -10 15 -10 8 0 15
-8 15 -18 0 -10 6 -24 13 -31 10 -11 8 -12 -9 -7 -19 6 -44 -13 -69 -54 -6
-10 -4 -12 10 -6 14 5 15 4 7 -6 -15 -18 -77 -54 -68 -39 4 6 1 11 -8 11 -9 0
-16 -5 -16 -12 0 -6 -3 -8 -7 -5 -3 4 -13 1 -21 -6 -13 -9 -14 -9 -8 1 5 8 0
12 -14 12 -14 0 -19 -4 -14 -12 5 -10 4 -10 -5 -2 -17 16 -81 -4 -81 -25 0
-12 -2 -13 -9 -3 -5 9 -17 11 -36 6 -20 -5 -26 -4 -21 5 4 6 13 11 20 11 7 0
46 16 85 36 95 48 194 145 244 242 21 39 41 72 44 72 3 0 3 -7 -1 -15z m1599
-25 c-11 -5 -27 -9 -35 -9 -9 0 -8 4 5 9 11 5 27 9 35 9 9 0 8 -4 -5 -9z
m-2517 -188 c18 -17 183 -117 193 -117 4 0 11 -4 16 -9 5 -5 -1 -7 -14 -3 -16
3 -23 1 -23 -9 0 -16 -2 -16 -24 -8 -9 3 -13 10 -10 15 3 5 -2 6 -10 3 -25
-10 -118 59 -109 81 3 9 -2 12 -14 9 -24 -7 -57 29 -59 62 -1 26 1 25 54 -24z
m867 -21 c3 -5 1 -12 -5 -16 -5 -3 -10 1 -10 9 0 18 6 21 15 7z m-545 -125 c0
-3 -4 -8 -10 -11 -5 -3 -10 -1 -10 4 0 6 5 11 10 11 6 0 10 -2 10 -4z m151 -7
c-16 -6 -28 -6 -35 1 -7 7 1 10 25 9 32 0 33 -1 10 -10z m-54 -5 c-3 -3 -12
-4 -19 -1 -8 3 -5 6 6 6 11 1 17 -2 13 -5z m473 -259 c0 -11 -29 -11 -33 -1
-4 10 1 12 14 9 10 -3 19 -7 19 -8z"/>
<path d="M16360 7073 c0 -5 7 -46 16 -93 8 -47 15 -141 15 -210 1 -392 -145
-754 -411 -1020 -122 -122 -242 -209 -400 -287 l-125 -63 280 2 280 2 -220 6
c-121 4 -222 8 -224 9 -2 0 47 34 107 75 270 180 471 386 572 586 63 126 158
400 163 472 1 9 6 14 12 10 17 -11 35 -11 42 0 3 6 1 8 -5 4 -6 -3 -13 -2 -17
4 -4 6 4 10 19 10 13 0 26 -5 28 -11 3 -9 39 -19 85 -22 7 0 10 -4 7 -9 -3 -4
1 -8 8 -8 15 0 52 -41 120 -132 27 -38 52 -68 55 -68 3 0 -7 20 -21 44 -14 25
-26 56 -26 69 0 14 -26 65 -58 113 -77 118 -77 118 -63 110 6 -4 76 -105 154
-224 169 -255 195 -298 178 -287 -9 5 -12 3 -9 -6 3 -8 10 -13 16 -12 5 1 16
-5 24 -15 12 -15 11 -16 -4 -3 -28 21 -21 3 16 -42 18 -23 79 -109 135 -192
89 -131 131 -182 131 -159 0 24 -718 1156 -829 1307 -32 43 -51 58 -51 40z
m60 -93 c6 -11 8 -20 6 -20 -3 0 -10 9 -16 20 -6 11 -8 20 -6 20 3 0 10 -9 16
-20z m53 -79 c27 -46 14 -38 -18 12 -16 23 -22 37 -14 30 8 -6 22 -25 32 -42z
m-18 -223 c5 4 4 1 0 -7 -6 -11 -4 -13 8 -8 10 3 17 2 17 -3 0 -6 8 -10 18
-11 10 0 12 -3 4 -6 -6 -2 -9 -10 -5 -16 4 -6 0 -8 -10 -4 -10 3 -17 2 -17 -4
0 -6 -7 -6 -20 1 -16 9 -18 8 -14 -5 4 -8 11 -15 17 -15 6 0 7 -3 4 -6 -15
-16 -38 20 -35 57 1 28 5 36 13 29 7 -6 16 -6 20 -2z"/>
<path d="M16816 6243 c3 -11 -11 -37 -36 -67 -22 -26 -40 -50 -40 -53 0 -3 19
10 43 28 35 28 31 22 -24 -37 -181 -195 -265 -375 -304 -656 l-6 -47 -47 -4
c-34 -2 -27 -4 27 -5 66 -2 73 0 56 12 -18 13 -18 19 -6 97 14 97 66 260 110
347 43 86 139 208 225 289 75 69 76 70 56 88 -11 10 -23 15 -27 12 -3 -4 -12
-2 -19 4 -9 8 -11 6 -8 -8z"/>
<path d="M16900 6182 c6 -13 14 -21 18 -18 3 4 -2 14 -12 24 -18 16 -18 16 -6
-6z"/>
<path d="M16822 6056 c-156 -173 -219 -274 -263 -428 -24 -84 -48 -182 -46
-184 1 -1 83 -4 183 -7 l180 -6 12 57 c6 31 27 90 46 130 20 39 33 72 30 72
-3 0 -21 -34 -41 -75 -19 -41 -40 -78 -47 -82 -8 -5 -8 -3 0 8 13 17 33 108
38 170 2 24 14 70 26 102 12 31 20 63 17 70 -2 6 4 26 13 43 20 35 15 48 -47
137 -19 27 -32 51 -29 54 2 3 22 -23 43 -57 21 -34 62 -95 92 -137 46 -64 52
-78 43 -94 -14 -21 -3 -26 16 -7 30 30 8 -9 -28 -50 -55 -62 -106 -148 -130
-218 -22 -64 -26 -110 -5 -52 24 64 47 108 57 108 7 0 7 -5 0 -13 -7 -8 -7
-18 -2 -27 8 -13 10 -12 10 2 0 9 6 18 13 21 9 3 9 9 0 25 -9 16 -10 29 -2 49
13 34 49 74 60 67 5 -3 9 4 9 15 0 22 14 28 25 11 4 -6 11 -8 16 -5 5 3 6 -2
2 -11 -5 -14 -2 -16 15 -12 12 4 22 3 22 -2 0 -4 11 -7 24 -6 13 0 21 6 18 11
-29 48 -246 366 -264 386 l-23 27 -83 -92z m48 -583 c-11 -17 -11 -17 -6 0 3
10 7 26 7 35 1 15 2 15 6 0 2 -10 -1 -25 -7 -35z"/>
<path d="M12820 6098 c-31 -42 -39 -65 -18 -52 7 4 8 3 4 -5 -4 -6 -11 -9 -16
-6 -5 3 -14 -5 -21 -17 -7 -13 -49 -79 -93 -148 -45 -69 -85 -131 -89 -137
-10 -16 21 -6 44 14 15 12 16 11 13 -14 l-3 -28 31 34 c23 26 32 30 38 20 5
-7 6 -17 3 -23 -3 -5 -1 -6 5 -2 12 7 55 -48 45 -58 -3 -3 -1 -6 6 -6 7 0 10
-4 6 -10 -3 -5 3 -18 14 -29 11 -11 29 -37 41 -58 14 -26 19 -30 14 -13 -9 38
-62 129 -103 180 -20 25 -42 53 -50 62 -11 15 -1 35 88 167 56 82 101 152 101
154 0 3 -7 7 -15 11 -10 4 -25 -9 -45 -36z"/>
<path d="M17563 6013 c9 -2 25 -2 35 0 9 3 1 5 -18 5 -19 0 -27 -2 -17 -5z"/>
<path d="M12098 6003 c6 -2 18 -2 25 0 6 3 1 5 -13 5 -14 0 -19 -2 -12 -5z"/>
<path d="M17668 6003 c6 -2 18 -2 25 0 6 3 1 5 -13 5 -14 0 -19 -2 -12 -5z"/>
<path d="M11975 5973 c-141 -51 -266 -152 -344 -279 -34 -56 -84 -181 -78
-197 2 -6 13 18 26 52 33 91 84 172 152 246 76 81 151 131 259 172 47 18 78
32 70 32 -8 0 -46 -12 -85 -26z"/>
<path d="M17430 5974 c-62 -13 -176 -53 -155 -53 6 -1 39 9 75 20 91 29 245
36 333 15 85 -20 131 -43 185 -95 24 -23 47 -41 53 -41 6 0 7 -4 4 -10 -3 -5
1 -10 9 -10 9 0 16 -4 16 -10 0 -5 7 -10 15 -10 8 0 15 -4 15 -10 0 -5 26 -36
59 -68 62 -62 96 -115 87 -138 -3 -7 -1 -16 5 -20 6 -3 8 -12 5 -20 -3 -7 -1
-16 3 -19 5 -3 7 -14 4 -25 -3 -11 -1 -20 4 -20 18 0 6 -191 -16 -259 -12 -35
-21 -68 -21 -73 0 -10 -30 -80 -62 -145 -11 -23 -41 -63 -67 -88 -118 -118
-274 -185 -433 -185 -88 0 -216 21 -247 41 -14 9 -14 10 2 5 32 -10 97 -19 97
-13 0 3 -17 11 -37 17 -59 19 -93 34 -93 43 0 4 -6 7 -12 6 -12 -2 -58 14 -79
27 -5 3 -9 1 -9 -3 0 -5 25 -21 56 -36 31 -16 54 -31 51 -34 -10 -10 -140 69
-191 116 -27 25 -62 64 -78 85 -37 51 -36 37 1 -18 47 -68 139 -154 210 -196
108 -64 179 -83 317 -88 142 -5 209 9 324 65 105 51 240 187 291 293 46 94
100 265 69 220 -7 -11 -10 9 -10 70 -1 260 -144 503 -360 609 -139 68 -278 86
-420 55z m777 -776 c-3 -8 -6 -5 -6 6 -1 11 2 17 5 13 3 -3 4 -12 1 -19z"/>
<path d="M17802 5967 c175 -75 311 -210 380 -380 16 -40 26 -58 23 -42 -3 17
-24 68 -47 115 -56 114 -168 228 -279 282 -41 20 -89 40 -105 43 -16 3 -4 -5
28 -18z"/>
<path d="M12919 5918 c-1 -7 -1 -17 0 -22 1 -5 -5 -6 -13 -3 -9 4 -17 -3 -22
-21 -11 -40 -11 -46 -1 -59 5 -7 6 -17 2 -23 -3 -5 -2 -10 4 -10 7 0 7 -8 1
-24 -5 -14 -5 -26 0 -28 4 -2 9 -21 11 -43 1 -22 7 -46 13 -54 6 -7 11 -18 12
-25 1 -6 11 -39 23 -74 12 -35 19 -67 16 -73 -4 -5 -19 -9 -36 -9 -16 0 -29
-4 -29 -10 0 -10 352 -15 362 -5 8 8 -9 86 -38 180 -29 91 -94 225 -115 236
-50 26 -92 40 -105 35 -8 -3 -13 -2 -10 3 3 5 -1 12 -10 15 -8 3 -12 2 -9 -4
11 -18 -15 -10 -35 10 -13 13 -20 15 -21 8z"/>
<path d="M12710 5805 c13 -14 26 -25 28 -25 3 0 -5 11 -18 25 -13 14 -26 25
-28 25 -3 0 5 -11 18 -25z"/>
<path d="M17014 5758 l-19 -23 23 19 c21 18 27 26 19 26 -2 0 -12 -10 -23 -22z"/>
<path d="M12755 5750 c10 -11 20 -20 23 -20 3 0 -3 9 -13 20 -10 11 -20 20
-23 20 -3 0 3 -9 13 -20z"/>
<path d="M12795 5696 c10 -14 19 -26 22 -26 7 0 -17 39 -28 46 -6 3 -3 -5 6
-20z"/>
<path d="M17125 5648 c-57 -76 -69 -98 -90 -171 l-16 -57 -54 0 c-48 0 -54 3
-58 23 -4 19 -4 18 -6 -5 -1 -28 -1 -28 67 -28 l67 0 22 73 c21 68 78 170 117
210 10 9 13 17 8 17 -6 0 -31 -28 -57 -62z"/>
<path d="M12830 5640 c6 -11 13 -20 16 -20 2 0 0 9 -6 20 -6 11 -13 20 -16 20
-2 0 0 -9 6 -20z"/>
<path d="M17017 5653 c-4 -3 -7 -11 -7 -17 0 -6 5 -5 12 2 6 6 9 14 7 17 -3 3
-9 2 -12 -2z"/>
<path d="M12677 5592 c15 -28 29 -49 31 -47 5 5 -37 83 -48 90 -6 4 2 -16 17
-43z"/>
<path d="M17042 5581 c-2 -24 -2 -24 13 -5 18 24 19 31 2 31 -7 0 -14 -12 -15
-26z"/>
<path d="M16956 5524 c-4 -9 -4 -19 -1 -22 2 -3 7 3 11 12 4 9 4 19 1 22 -2 3
-7 -3 -11 -12z"/>
<path d="M18623 5315 c0 -22 2 -30 4 -17 2 12 2 30 0 40 -3 9 -5 -1 -4 -23z"/>
<path d="M13277 5180 c-14 -79 -96 -312 -142 -397 -24 -46 -42 -83 -40 -83 13
0 99 161 128 240 38 104 71 238 65 267 -2 10 -7 -2 -11 -27z"/>
<path d="M14727 5110 c-345 -26 -863 -204 -1153 -396 -82 -54 -82 -54 68 19
65 31 137 60 160 63 24 4 59 15 79 25 20 10 39 15 43 12 3 -4 6 -1 6 5 0 6 9
9 20 7 11 -2 20 0 20 5 0 5 10 12 23 16 12 4 25 11 28 16 3 5 20 10 37 11 18
1 32 6 32 11 0 4 7 6 15 2 8 -3 15 -2 15 2 0 4 8 8 18 9 10 1 45 8 78 17 55
14 106 22 194 31 19 2 50 8 67 14 22 6 35 6 39 -1 4 -5 19 -8 35 -6 17 3 29 0
29 -6 0 -6 4 -5 9 3 6 10 20 12 45 8 20 -3 38 -2 41 3 3 5 18 5 35 0 18 -5 32
-5 36 1 4 6 11 6 20 -2 11 -9 14 -8 14 2 0 10 3 10 12 1 15 -15 29 -16 26 -1
-2 6 3 14 11 17 9 3 11 0 6 -8 -6 -10 -4 -11 11 -5 10 4 56 9 101 11 45 1 88
6 94 10 7 4 9 3 6 -3 -7 -11 107 -12 119 0 12 12 24 8 18 -6 -3 -9 2 -13 18
-11 13 1 23 3 23 4 0 1 12 3 27 4 14 1 24 -2 22 -6 -2 -4 5 -7 16 -7 11 -1 29
-1 40 -2 13 0 18 -5 13 -12 -4 -8 -1 -8 9 1 12 9 18 10 23 2 4 -6 14 -9 22 -6
8 3 12 2 8 -3 -3 -5 13 -12 35 -16 22 -4 38 -11 35 -16 -4 -5 1 -6 9 -3 11 4
16 0 16 -10 0 -19 16 -21 23 -3 4 9 6 9 6 0 1 -7 8 -10 16 -7 8 4 15 1 15 -5
0 -6 11 -8 30 -4 19 3 30 1 30 -5 0 -15 37 -34 69 -37 37 -4 131 -36 161 -54
21 -14 23 -14 15 -1 -7 12 -6 13 7 3 8 -7 18 -10 21 -6 4 3 7 2 7 -3 0 -6 17
-11 38 -12 92 -6 115 -12 193 -52 165 -84 311 -184 484 -330 105 -89 154 -124
162 -117 9 10 -5 24 -127 126 -133 112 -239 185 -415 288 -192 111 -245 139
-377 197 -379 165 -782 242 -1131 216z"/>
<path d="M17020 4875 c13 -14 26 -25 28 -25 3 0 -5 11 -18 25 -13 14 -26 25
-28 25 -3 0 5 -11 18 -25z"/>
<path d="M17820 4840 c-9 -6 -10 -10 -3 -10 6 0 15 5 18 10 8 12 4 12 -15 0z"/>
<path d="M17780 4820 c-9 -6 -10 -10 -3 -10 6 0 15 5 18 10 8 12 4 12 -15 0z"/>
<path d="M17125 4770 c10 -11 20 -20 23 -20 3 0 -3 9 -13 20 -10 11 -20 20
-23 20 -3 0 3 -9 13 -20z"/>
<path d="M17222 4187 c7 -8 17 -14 23 -15 5 -1 33 -3 60 -6 l50 -6 -65 20
c-78 23 -84 24 -68 7z"/>
<path d="M16930 4174 c0 -14 240 -118 321 -138 106 -27 290 -40 384 -27 58 8
57 8 -40 10 -187 2 -373 42 -545 116 -86 37 -120 48 -120 39z"/>
<path d="M11958 4163 c7 -3 16 -2 19 1 4 3 -2 6 -13 5 -11 0 -14 -3 -6 -6z"/>
<path d="M12018 4153 c7 -3 16 -2 19 1 4 3 -2 6 -13 5 -11 0 -14 -3 -6 -6z"/>
<path d="M12130 4140 c71 -7 169 -4 179 6 2 2 -54 3 -125 3 -121 -2 -124 -2
-54 -9z"/>
<path d="M11850 4066 c0 -6 146 -50 221 -66 79 -17 235 -8 346 20 51 13 91 25
89 27 -2 2 -61 -4 -132 -13 -169 -21 -381 -8 -506 31 -10 4 -18 4 -18 1z"/>
<path d="M17723 4023 c9 -2 23 -2 30 0 6 3 -1 5 -18 5 -16 0 -22 -2 -12 -5z"/>
</g>
</svg>
